<svg width="91" height="83" viewBox="0 0 91 83" fill="none" xmlns="http://www.w3.org/2000/svg">
<path d="M79.625 31.125H85.3125V38.9062H79.625V31.125Z" fill="#FDD2CB"/>
<path d="M68.25 18.1562H73.9375V51.875H68.25V18.1562Z" fill="#FDD2CB"/>
<path d="M56.875 28.5312H62.5625V41.5H56.875V28.5312Z" fill="#FDD2CB"/>
<path d="M45.5 23.3438H51.1875V46.6875H45.5V23.3438Z" fill="#FDD2CB"/>
<path d="M34.125 31.125H39.8125V38.9062H34.125V31.125Z" fill="#FDD2CB"/>
<path d="M38.3906 67.4375C40.7465 67.4375 42.6562 65.6956 42.6562 63.5469C42.6562 61.3981 40.7465 59.6562 38.3906 59.6562C36.0348 59.6562 34.125 61.3981 34.125 63.5469C34.125 65.6956 36.0348 67.4375 38.3906 67.4375Z" fill="#FDD2CB"/>
<path d="M56.875 77.8125H19.9062C18.3983 77.8111 16.9525 77.2642 15.8862 76.2916C14.82 75.3191 14.2203 74.0004 14.2188 72.625V10.375C14.2203 8.99961 14.82 7.68095 15.8862 6.7084C16.9525 5.73585 18.3983 5.18887 19.9062 5.1875H56.875V10.375H19.9062V72.625H56.875V62.25H62.5625V72.625C62.561 74.0004 61.9613 75.3191 60.895 76.2916C59.8287 77.2642 58.383 77.8111 56.875 77.8125Z" fill="#FDD2CB"/>
</svg>
