<svg width="43" height="55" viewBox="0 0 43 55" fill="none" xmlns="http://www.w3.org/2000/svg">
<path d="M0.875 6.875C0.875 5.05164 1.59933 3.30295 2.88864 2.01364C4.17795 0.724328 5.92664 0 7.75 0L35.25 0C37.0734 0 38.822 0.724328 40.1114 2.01364C41.4007 3.30295 42.125 5.05164 42.125 6.875V53.2812C42.1248 53.5921 42.0404 53.8972 41.8805 54.1639C41.7207 54.4305 41.4916 54.6489 41.2175 54.7956C40.9434 54.9423 40.6347 55.012 40.3241 54.9971C40.0136 54.9823 39.7129 54.8835 39.4541 54.7113L21.5 45.0347L3.54594 54.7113C3.28711 54.8835 2.98642 54.9823 2.67588 54.9971C2.36534 55.012 2.05658 54.9423 1.7825 54.7956C1.50841 54.6489 1.27926 54.4305 1.11945 54.1639C0.959645 53.8972 0.875161 53.5921 0.875 53.2812V6.875ZM7.75 3.4375C6.83832 3.4375 5.96398 3.79966 5.31932 4.44432C4.67466 5.08898 4.3125 5.96332 4.3125 6.875V50.0706L20.5478 41.5387C20.8299 41.351 21.1612 41.2509 21.5 41.2509C21.8388 41.2509 22.1701 41.351 22.4522 41.5387L38.6875 50.0706V6.875C38.6875 5.96332 38.3253 5.08898 37.6807 4.44432C37.036 3.79966 36.1617 3.4375 35.25 3.4375H7.75Z" fill="black"/>
</svg>
