<svg width="29" height="32" viewBox="0 0 29 32" fill="none" xmlns="http://www.w3.org/2000/svg">
<path d="M24.125 3.33335H21.375V1.75002C21.375 1.33009 21.2301 0.927367 20.9723 0.630435C20.7144 0.333502 20.3647 0.166687 20 0.166687C19.6353 0.166687 19.2856 0.333502 19.0277 0.630435C18.7699 0.927367 18.625 1.33009 18.625 1.75002V3.33335H10.375V1.75002C10.375 1.33009 10.2301 0.927367 9.97227 0.630435C9.71441 0.333502 9.36467 0.166687 9 0.166687C8.63533 0.166687 8.28559 0.333502 8.02773 0.630435C7.76987 0.927367 7.625 1.33009 7.625 1.75002V3.33335H4.875C3.78098 3.33335 2.73177 3.8338 1.95818 4.7246C1.1846 5.6154 0.75 6.82358 0.75 8.08335V27.0834C0.75 28.3431 1.1846 29.5513 1.95818 30.4421C2.73177 31.3329 3.78098 31.8334 4.875 31.8334H24.125C25.219 31.8334 26.2682 31.3329 27.0418 30.4421C27.8154 29.5513 28.25 28.3431 28.25 27.0834V8.08335C28.25 6.82358 27.8154 5.6154 27.0418 4.7246C26.2682 3.8338 25.219 3.33335 24.125 3.33335ZM25.5 27.0834C25.5 27.5033 25.3551 27.906 25.0973 28.2029C24.8394 28.4999 24.4897 28.6667 24.125 28.6667H4.875C4.51033 28.6667 4.16059 28.4999 3.90273 28.2029C3.64487 27.906 3.5 27.5033 3.5 27.0834V16H25.5V27.0834ZM25.5 12.8334H3.5V8.08335C3.5 7.66343 3.64487 7.2607 3.90273 6.96377C4.16059 6.66684 4.51033 6.50002 4.875 6.50002H7.625V8.08335C7.625 8.50328 7.76987 8.90601 8.02773 9.20294C8.28559 9.49987 8.63533 9.66669 9 9.66669C9.36467 9.66669 9.71441 9.49987 9.97227 9.20294C10.2301 8.90601 10.375 8.50328 10.375 8.08335V6.50002H18.625V8.08335C18.625 8.50328 18.7699 8.90601 19.0277 9.20294C19.2856 9.49987 19.6353 9.66669 20 9.66669C20.3647 9.66669 20.7144 9.49987 20.9723 9.20294C21.2301 8.90601 21.375 8.50328 21.375 8.08335V6.50002H24.125C24.4897 6.50002 24.8394 6.66684 25.0973 6.96377C25.3551 7.2607 25.5 7.66343 25.5 8.08335V12.8334Z" fill="black"/>
</svg>
