<svg width="25" height="32" viewBox="0 0 25 32" fill="none" xmlns="http://www.w3.org/2000/svg">
<path d="M12.5 8.39999C18.935 8.39999 24.05 6.68999 24.05 4.59999C24.05 2.50999 18.935 0.799988 12.5 0.799988C6.06495 0.799988 0.949951 2.50999 0.949951 4.59999C0.949951 6.68999 6.06495 8.39999 12.5 8.39999ZM12.5 25.5C6.06495 25.5 0.949951 23.79 0.949951 21.7V27.4C0.949951 29.49 6.06495 31.2 12.5 31.2C18.935 31.2 24.05 29.49 24.05 27.4V21.7C24.05 23.79 18.935 25.5 12.5 25.5ZM12.5 17.9C6.06495 17.9 0.949951 16.19 0.949951 14.1V19.8C0.949951 21.89 6.06495 23.6 12.5 23.6C18.935 23.6 24.05 21.89 24.05 19.8V14.1C24.05 16.19 18.935 17.9 12.5 17.9ZM12.5 10.3C6.06495 10.3 0.949951 8.58999 0.949951 6.49999V12.2C0.949951 14.29 6.06495 16 12.5 16C18.935 16 24.05 14.29 24.05 12.2V6.49999C24.05 8.58999 18.935 10.3 12.5 10.3Z" fill="black"/>
</svg>
