<svg width="44" height="38" viewBox="0 0 44 38" fill="none" xmlns="http://www.w3.org/2000/svg">
<path d="M13.3906 3.625H12.9375C13.1867 3.625 13.3906 3.45625 13.3906 3.25V3.625H30.6094V3.25C30.6094 3.45625 30.8133 3.625 31.0625 3.625H30.6094V7H34.6875V3.25C34.6875 1.59531 33.0619 0.25 31.0625 0.25H12.9375C10.9381 0.25 9.3125 1.59531 9.3125 3.25V7H13.3906V3.625ZM41.9375 7H2.0625C1.05996 7 0.25 7.67031 0.25 8.5V10C0.25 10.2063 0.453906 10.375 0.703125 10.375H4.12422L5.52324 34.8906C5.61387 36.4891 7.21113 37.75 9.14258 37.75H34.8574C36.7945 37.75 38.3861 36.4938 38.4768 34.8906L39.8758 10.375H43.2969C43.5461 10.375 43.75 10.2063 43.75 10V8.5C43.75 7.67031 42.94 7 41.9375 7ZM34.4213 34.375H9.57871L8.20801 10.375H35.792L34.4213 34.375Z" fill="white"/>
</svg>
