<svg width="21" height="30" viewBox="0 0 21 30" fill="none" xmlns="http://www.w3.org/2000/svg">
<path d="M19.2656 29.25C19.6759 29.25 20.0693 29.0623 20.3594 28.7283C20.6495 28.3942 20.8125 27.9412 20.8125 27.4688C20.8125 26.9963 20.6495 26.5433 20.3594 26.2092C20.0693 25.8752 19.6759 25.6875 19.2656 25.6875L1.73438 25.6875C1.32412 25.6875 0.930666 25.8752 0.64057 26.2092C0.350475 26.5433 0.1875 26.9963 0.1875 27.4687C0.1875 27.9412 0.350475 28.3942 0.64057 28.7283C0.930666 29.0623 1.32412 29.25 1.73438 29.25L19.2656 29.25ZM9.40688 22.79C9.69692 23.1236 10.0901 23.3109 10.5 23.3109C10.9099 23.3109 11.3031 23.1236 11.5931 22.79L18.2963 15.0713C18.5695 14.7336 18.7182 14.287 18.7112 13.8255C18.7041 13.364 18.5418 12.9238 18.2583 12.5974C17.9749 12.271 17.5926 12.0841 17.1918 12.076C16.7911 12.0678 16.4032 12.2391 16.11 12.5538L12.0469 17.2325L12.0469 2.53125C12.0469 2.05883 11.8839 1.60577 11.5938 1.27172C11.3037 0.937668 10.9103 0.75 10.5 0.75C10.0897 0.75 9.69629 0.937668 9.40619 1.27172C9.1161 1.60577 8.95313 2.05883 8.95313 2.53125L8.95313 17.2325L4.89 12.5538C4.74838 12.3787 4.57761 12.2384 4.38786 12.141C4.19811 12.0437 3.99328 11.9913 3.78558 11.9871C3.57788 11.9829 3.37157 12.0269 3.17896 12.1165C2.98634 12.206 2.81137 12.3394 2.66448 12.5085C2.5176 12.6777 2.4018 12.8792 2.324 13.101C2.2462 13.3228 2.20799 13.5603 2.21165 13.7995C2.21532 14.0387 2.26078 14.2745 2.34533 14.493C2.42987 14.7115 2.55177 14.9082 2.70375 15.0713L9.40688 22.79Z" fill="black"/>
</svg>
