<svg width="50" height="48" viewBox="0 0 50 48" fill="none" xmlns="http://www.w3.org/2000/svg">
<path d="M44.2854 21.924C45.2729 23.164 45.2729 24.838 44.2854 26.076C41.1749 29.974 33.7124 38 24.9999 38C16.2874 38 8.82494 29.974 5.71452 26.076C5.23407 25.4823 4.97327 24.7518 4.97327 24C4.97327 23.2482 5.23407 22.5177 5.71452 21.924C8.82494 18.026 16.2874 10 24.9999 10C33.7124 10 41.1749 18.026 44.2854 21.924V21.924Z" stroke="white" stroke-width="2" stroke-linecap="round" stroke-linejoin="round"/>
<path d="M25 30C28.4518 30 31.25 27.3137 31.25 24C31.25 20.6863 28.4518 18 25 18C21.5482 18 18.75 20.6863 18.75 24C18.75 27.3137 21.5482 30 25 30Z" stroke="white" stroke-width="2" stroke-linecap="round" stroke-linejoin="round"/>
</svg>
