<svg width="49" height="49" viewBox="0 0 49 49" fill="none" xmlns="http://www.w3.org/2000/svg">
<path d="M47.4167 42.8333V24.8987C47.4168 23.651 47.1622 22.4163 46.6685 21.2704C46.1747 20.1245 45.4522 19.0915 44.5452 18.2346L27.6488 2.26625C26.7978 1.46171 25.6711 1.01343 24.5 1.01343C23.3289 1.01343 22.2023 1.46171 21.3513 2.26625L4.45483 18.2346C3.54785 19.0915 2.82535 20.1245 2.3316 21.2704C1.83785 22.4163 1.58324 23.651 1.58337 24.8987V42.8333C1.58337 44.0489 2.06626 45.2147 2.9258 46.0742C3.78534 46.9338 4.95113 47.4167 6.16671 47.4167H42.8334C44.049 47.4167 45.2147 46.9338 46.0743 46.0742C46.9338 45.2147 47.4167 44.0489 47.4167 42.8333Z" stroke="black" stroke-width="2" stroke-linecap="round" stroke-linejoin="round"/>
</svg>
