<svg width="55" height="55" viewBox="0 0 55 55" fill="none" xmlns="http://www.w3.org/2000/svg">
<path d="M33.0872 0C33.5139 1.3105e-05 33.9296 0.132015 34.2744 0.376996C34.6193 0.621976 34.8754 0.967293 35.006 1.36321L37.2231 8.07714C38.1543 8.52107 39.0452 9.02 39.8958 9.58179L46.9745 8.09679C47.3918 8.00994 47.8267 8.05445 48.2164 8.22389C48.6062 8.39333 48.9307 8.67896 49.1432 9.03964L54.7304 18.4643C54.9437 18.8248 55.0341 19.2419 54.9885 19.6557C54.9428 20.0695 54.7635 20.4584 54.4764 20.7664L49.6189 25.9914C49.6896 26.9933 49.6896 27.9988 49.6189 29.0007L54.4764 34.2336C54.7635 34.5416 54.9428 34.9305 54.9885 35.3443C55.0341 35.7581 54.9437 36.1752 54.7304 36.5357L49.1432 45.9643C48.9301 46.3242 48.6054 46.6091 48.2157 46.7778C47.826 46.9465 47.3914 46.9904 46.9745 46.9032L39.8958 45.4182C39.0492 45.9761 38.1543 46.4789 37.2271 46.9229L35.006 53.6368C34.8754 54.0327 34.6193 54.378 34.2744 54.623C33.9296 54.868 33.5139 55 33.0872 55H21.9128C21.4861 55 21.0704 54.868 20.7256 54.623C20.3807 54.378 20.1246 54.0327 19.994 53.6368L17.7809 46.9268C16.8522 46.4842 15.9565 45.9788 15.1002 45.4143L8.02555 46.9032C7.60818 46.9901 7.1733 46.9455 6.78356 46.7761C6.39381 46.6067 6.0693 46.321 5.85679 45.9604L0.269626 36.5357C0.0562754 36.1752 -0.0340932 35.7581 0.0115502 35.3443C0.0571936 34.9305 0.23649 34.5416 0.523588 34.2336L5.38112 29.0007C5.31075 28.0014 5.31075 26.9986 5.38112 25.9993L0.523588 20.7664C0.23649 20.4584 0.0571936 20.0695 0.0115502 19.6557C-0.0340932 19.2419 0.0562754 18.8248 0.269626 18.4643L5.85679 9.03571C6.06989 8.67575 6.39465 8.39094 6.78435 8.22222C7.17405 8.05351 7.60861 8.00959 8.02555 8.09679L15.1002 9.58571C15.9548 9.02393 16.8497 8.51714 17.7809 8.07321L19.998 1.36321C20.1282 0.968568 20.3831 0.624166 20.7263 0.379304C21.0695 0.134441 21.4835 0.00167226 21.9088 0H33.0831H33.0872ZM31.6118 3.92857H23.3882L21.0985 10.8704L19.5546 11.605C18.7956 11.967 18.0629 12.3791 17.3617 12.8386L15.9346 13.7814L8.61409 12.2414L4.50233 19.1871L9.5211 24.6007L9.40017 26.2664C9.34224 27.0878 9.34224 27.9122 9.40017 28.7336L9.5211 30.3993L4.49426 35.8129L8.61006 42.7586L15.9306 41.2225L17.3576 42.1614C18.0589 42.6209 18.7916 43.033 19.5506 43.395L21.0945 44.1296L23.3882 51.0714H31.6198L33.9176 44.1257L35.4575 43.395C36.2156 43.0339 36.9471 42.6217 37.6464 42.1614L39.0694 41.2225L46.394 42.7586L50.5057 35.8129L45.4829 30.3993L45.6039 28.7336C45.662 27.9109 45.662 27.0852 45.6039 26.2625L45.4829 24.5968L50.5098 19.1871L46.394 12.2414L39.0694 13.7736L37.6464 12.8386C36.9471 12.3782 36.2157 11.966 35.4575 11.605L33.9176 10.8743L31.6158 3.92857H31.6118ZM27.5 15.7143C30.7074 15.7143 33.7834 16.956 36.0513 19.1662C38.3193 21.3765 39.5934 24.3742 39.5934 27.5C39.5934 30.6258 38.3193 33.6235 36.0513 35.8338C33.7834 38.044 30.7074 39.2857 27.5 39.2857C24.2926 39.2857 21.2166 38.044 18.9487 35.8338C16.6807 33.6235 15.4066 30.6258 15.4066 27.5C15.4066 24.3742 16.6807 21.3765 18.9487 19.1662C21.2166 16.956 24.2926 15.7143 27.5 15.7143ZM27.5 19.6429C25.3617 19.6429 23.3111 20.4707 21.7991 21.9442C20.2871 23.4177 19.4377 25.4162 19.4377 27.5C19.4377 29.5838 20.2871 31.5823 21.7991 33.0558C23.3111 34.5293 25.3617 35.3571 27.5 35.3571C29.6383 35.3571 31.6889 34.5293 33.2009 33.0558C34.7129 31.5823 35.5623 29.5838 35.5623 27.5C35.5623 25.4162 34.7129 23.4177 33.2009 21.9442C31.6889 20.4707 29.6383 19.6429 27.5 19.6429Z" fill="black"/>
</svg>
