<svg width="38" height="38" viewBox="0 0 38 38" fill="none" xmlns="http://www.w3.org/2000/svg">
<path d="M33.5833 0H27.3333C25.0354 0 23.1667 1.794 23.1667 4V20C23.1667 22.206 21.2979 24 19 24C16.7021 24 14.8333 22.206 14.8333 20V4C14.8333 1.794 12.9646 0 10.6667 0H4.41667C2.11875 0 0.25 1.794 0.25 4V20C0.25 29.926 8.66042 38 19 38C29.3396 38 37.75 29.926 37.75 20V4C37.75 1.794 35.8812 0 33.5833 0ZM27.3333 4H33.5833V10H27.3333V4ZM4.41667 4H10.6667V10H4.41667V4ZM19 34C10.9604 34 4.41667 27.718 4.41667 20V14H10.6667V20C10.6667 24.412 14.4042 28 19 28C23.5958 28 27.3333 24.412 27.3333 20V14H33.5833V20C33.5833 27.718 27.0396 34 19 34Z" fill="white"/>
</svg>
