<svg width="21" height="30" viewBox="0 0 21 30" fill="none" xmlns="http://www.w3.org/2000/svg">
<path d="M1.73438 0.75C1.32412 0.75 0.930664 0.937667 0.640569 1.27172C0.350474 1.60576 0.1875 2.05883 0.1875 2.53125C0.1875 3.00367 0.350474 3.45673 0.640569 3.79078C0.930664 4.12483 1.32412 4.3125 1.73438 4.3125H19.2656C19.6759 4.3125 20.0693 4.12483 20.3594 3.79078C20.6495 3.45673 20.8125 3.00367 20.8125 2.53125C20.8125 2.05883 20.6495 1.60576 20.3594 1.27172C20.0693 0.937667 19.6759 0.75 19.2656 0.75H1.73438ZM11.5931 7.21C11.3031 6.87643 10.9099 6.68907 10.5 6.68907C10.0901 6.68907 9.69691 6.87643 9.40687 7.21L2.70375 14.9287C2.43051 15.2664 2.28176 15.713 2.28883 16.1745C2.2959 16.636 2.45824 17.0762 2.74165 17.4026C3.02507 17.729 3.40743 17.9159 3.80817 17.924C4.20892 17.9322 4.59676 17.7609 4.89 17.4462L8.95312 12.7675V27.4688C8.95312 27.9412 9.1161 28.3942 9.40619 28.7283C9.69629 29.0623 10.0897 29.25 10.5 29.25C10.9103 29.25 11.3037 29.0623 11.5938 28.7283C11.8839 28.3942 12.0469 27.9412 12.0469 27.4688V12.7675L16.11 17.4462C16.2516 17.6213 16.4224 17.7616 16.6121 17.859C16.8019 17.9563 17.0067 18.0087 17.2144 18.0129C17.4221 18.0171 17.6284 17.9731 17.821 17.8835C18.0137 17.794 18.1886 17.6606 18.3355 17.4915C18.4824 17.3223 18.5982 17.1208 18.676 16.899C18.7538 16.6772 18.792 16.4397 18.7883 16.2005C18.7847 15.9613 18.7392 15.7255 18.6547 15.507C18.5701 15.2885 18.4482 15.0918 18.2962 14.9287L11.5931 7.21Z" fill="#0AB49A"/>
</svg>
